<svg width="320" height="813" viewBox="0 0 320 813" fill="none" xmlns="http://www.w3.org/2000/svg">
<path d="M11.4022 30.1229C-3.69284 46.8483 -2.32585 72.6088 14.4561 87.6607C31.2478 102.703 57.0946 101.339 72.1896 84.6136C87.2944 67.8881 85.9177 42.118 69.1454 27.0757C52.3537 12.0238 26.4973 13.3877 11.4022 30.1229ZM40.0799 145.073C51.8302 143.341 63.0279 138.949 72.4126 131.675L103.543 107.511C119.598 95.0512 130.641 77.0295 133.559 56.9474C134.247 52.1687 135.478 47.3997 137.282 42.708C150.787 7.52561 191.089 -9.5771 226.126 5.65863C257.402 19.2595 273.341 54.8676 262.628 87.1577C248.211 130.659 209.325 132.507 185.921 129.063C172.785 127.138 159.444 130.737 148.964 138.872L122.681 159.264C106.306 171.965 106.762 196.778 123.573 208.889L143.079 222.935C166.037 239.457 194.705 245.474 222.626 240.734C236.829 238.325 251.847 239.563 266.283 245.068C309.881 261.696 331.384 310.876 313.565 354.175C297.035 394.349 248.619 415.553 207.735 400.549C178.107 389.676 158.465 363.867 154.102 334.905C149.904 307.104 135.071 282.001 112.201 265.537L75.1757 238.876C65.3741 231.815 53.934 227.268 41.9123 226.059C38.3736 225.711 34.8446 224.889 31.3738 223.563C16.0752 217.73 6.32205 203.733 5.17805 188.468L5.10049 183.902C5.2653 179.559 6.11846 175.157 7.7666 170.872C13.2443 156.594 25.9059 147.153 40.0799 145.073Z" fill="url(#paint0_linear_79_2)"/>
<path d="M235.811 730.864C220.716 747.589 222.083 773.349 238.875 788.401C255.647 803.444 281.504 802.08 296.599 785.354C311.704 768.619 310.337 742.868 293.545 727.816C276.763 712.765 250.916 714.128 235.811 730.864ZM271.314 675.396C259.486 676.518 248.076 680.349 238.332 687.13L205.999 709.679C189.324 721.306 177.37 738.738 173.434 758.646C172.494 763.376 171.02 768.087 168.974 772.672C153.685 807.12 112.559 822.143 78.3555 805.146C47.8164 789.969 33.7296 753.596 46.0713 721.887C62.6982 679.188 101.633 679.314 124.833 683.947C137.853 686.549 151.368 683.638 162.246 676.044L189.547 657.016C206.542 645.166 207.376 620.363 191.205 607.411L172.445 592.397C150.37 574.714 122.031 567.256 93.9159 570.564C79.5965 572.238 64.6759 570.235 50.5407 564.006C7.84407 545.171 -11.1096 494.966 8.91051 452.635C27.4861 413.351 76.9207 394.643 116.98 411.707C146.026 424.079 164.301 450.855 167.19 480.011C169.944 507.987 183.468 533.815 205.466 551.421L241.076 579.938C250.49 587.483 261.687 592.601 273.641 594.419C277.141 594.961 280.631 595.957 284.024 597.457C299.003 604.064 308.039 618.535 308.388 633.839L308.242 638.404C307.845 642.738 306.769 647.091 304.898 651.28C298.693 665.268 285.566 674.042 271.314 675.396Z" fill="url(#paint1_linear_79_2)"/>
<defs>
<linearGradient id="paint0_linear_79_2" x1="43.6598" y1="0.0724491" x2="189.969" y2="785.866" gradientUnits="userSpaceOnUse">
<stop stop-color="white" stop-opacity="0.652873"/>
<stop offset="0.403152" stop-color="#C7C7C7" stop-opacity="0.779455"/>
<stop offset="0.541007" stop-color="#EBEBEB" stop-opacity="0.692871"/>
<stop offset="0.819808" stop-color="#A4A4A4" stop-opacity="0.645026"/>
<stop offset="1" stop-opacity="0"/>
</linearGradient>
<linearGradient id="paint1_linear_79_2" x1="43.6598" y1="0.0724491" x2="189.969" y2="785.866" gradientUnits="userSpaceOnUse">
<stop stop-color="white" stop-opacity="0.652873"/>
<stop offset="0.403152" stop-color="#C7C7C7" stop-opacity="0.779455"/>
<stop offset="0.541007" stop-color="#EBEBEB" stop-opacity="0.692871"/>
<stop offset="0.819808" stop-color="#A4A4A4" stop-opacity="0.645026"/>
<stop offset="1" stop-opacity="0"/>
</linearGradient>
</defs>
</svg>
