<svg width="182" height="462" viewBox="0 0 182 462" fill="none" xmlns="http://www.w3.org/2000/svg">
<path d="M6.39474 17.6078C-2.16473 27.0918 -1.38959 41.699 8.12643 50.234C17.648 58.7635 32.3041 57.9901 40.8635 48.5062C49.4285 39.0222 48.6479 24.4095 39.1373 15.88C29.6158 7.34497 14.9542 8.11839 6.39474 17.6078ZM22.6561 82.7888C29.319 81.807 35.6685 79.3167 40.99 75.1918L58.6422 61.4897C67.7459 54.4247 74.0074 44.2057 75.6622 32.8184C76.0525 30.1087 76.7507 27.4045 77.7732 24.7441C85.4311 4.79434 108.284 -4.90355 128.151 3.73569C145.886 11.4479 154.924 31.6391 148.849 49.9488C140.675 74.6159 118.624 75.6635 105.354 73.7108C97.9047 72.6192 90.3403 74.6597 84.3975 79.2728L69.4941 90.8357C60.2089 98.0378 60.4673 112.107 69.9998 118.975L81.0606 126.939C94.0785 136.308 110.334 139.72 126.167 137.032C134.221 135.666 142.736 136.369 150.922 139.49C175.644 148.919 187.837 176.806 177.733 201.358C168.36 224.138 140.905 236.161 117.723 227.654C100.923 221.488 89.785 206.854 87.3112 190.431C84.9308 174.666 76.5198 160.432 63.5514 151.096L42.5567 135.979C36.9988 131.975 30.5119 129.397 23.6951 128.711C21.6886 128.514 19.6875 128.047 17.7194 127.296C9.0445 123.988 3.5141 116.051 2.8654 107.396L2.82143 104.807C2.91488 102.344 3.39865 99.8479 4.33321 97.418C7.43925 89.3218 14.6189 83.9682 22.6561 82.7888Z" fill="url(#paint0_linear_82_3)"/>
<path d="M133.643 414.955C125.084 424.439 125.859 439.046 135.381 447.581C144.891 456.11 159.553 455.337 168.112 445.853C176.677 436.363 175.902 421.762 166.38 413.227C156.864 404.692 142.208 405.465 133.643 414.955ZM153.775 383.502C147.068 384.139 140.598 386.311 135.073 390.156L116.739 402.942C107.283 409.535 100.505 419.42 98.273 430.708C97.7397 433.39 96.9041 436.062 95.7442 438.662C87.0747 458.195 63.7547 466.713 44.3598 457.076C27.043 448.469 19.0552 427.845 26.0534 409.864C35.4815 385.653 57.5591 385.724 70.7144 388.351C78.0975 389.827 85.7608 388.176 91.9289 383.87L107.41 373.08C117.047 366.361 117.519 352.297 108.35 344.952L97.7122 336.439C85.1946 326.412 69.1257 322.183 53.1832 324.059C45.0635 325.008 36.603 323.872 28.5877 320.34C4.37714 309.66 -6.37031 281.192 4.98185 257.188C15.5149 234.913 43.5462 224.304 66.2615 233.98C82.7318 240.996 93.0944 256.179 94.7326 272.712C96.2939 288.575 103.963 303.22 116.436 313.204L136.628 329.374C141.966 333.653 148.316 336.554 155.094 337.585C157.079 337.893 159.058 338.458 160.982 339.308C169.475 343.054 174.599 351.26 174.797 359.938L174.715 362.527C174.489 364.984 173.879 367.453 172.818 369.828C169.3 377.759 161.856 382.734 153.775 383.502Z" fill="url(#paint1_linear_82_3)"/>
<defs>
<linearGradient id="paint0_linear_82_3" x1="24.686" y1="0.568115" x2="107.649" y2="446.143" gradientUnits="userSpaceOnUse">
<stop stop-color="#30AB4C"/>
<stop offset="0.853177" stop-opacity="0"/>
</linearGradient>
<linearGradient id="paint1_linear_82_3" x1="24.686" y1="0.568115" x2="107.649" y2="446.143" gradientUnits="userSpaceOnUse">
<stop stop-color="#30AB4C"/>
<stop offset="0.853177" stop-opacity="0"/>
</linearGradient>
</defs>
</svg>
